# xmcd
#
# Track frame offsets:
#	150
#	11220
#	26685
#	43595
#	59557
#	74910
#	89182
#	104582
#
# Disc length: 1632
#
# Revision: 2
# Processed by: cddbd v1.5.1PL0 Copyright (c) Steve Scherf et al.
# Submitted via: uFREEDB 1.6.0
# Normalized: r0:TDELIM( - ),TSWAP
#
DISCID=7d065e08
DTITLE=Various Artist - CDX vol 14A
DYEAR=1991
DGENRE=Country
TTITLE0=The Remingtons - A Long Time Ago
TTITLE1=Great Plains - A Picture  Of You
TTITLE2=KarenTobin - Carolina Smokey Moon
TTITLE3=Alex Harvey - Cool Drink Of Water
TTITLE4=Anne Murray - Everyday
TTITLE5=Randy Travis - Forever Together
TTITLE6=Eddy Raven - I Know That Car
TTITLE7=George Fox - I Know Where You Go
EXTD=
EXTT0=
EXTT1=
EXTT2=
EXTT3=
EXTT4=
EXTT5=
EXTT6=
EXTT7=
PLAYORDER=
